<svg width="1318" height="1240" viewBox="0 0 1318 1240" fill="none" xmlns="http://www.w3.org/2000/svg">
<path fill-rule="evenodd" clip-rule="evenodd" d="M576.071 126.254C715.069 103.115 845.108 -44.9385 972.977 14.3118C1099.89 73.1194 1080.92 261.357 1140.67 387.87C1198.72 510.778 1321.69 608.256 1317.66 744.125C1313.43 886.287 1227.34 1017.61 1119.21 1109.94C1015.28 1198.69 876.511 1229.14 740.1 1237.32C613.135 1244.94 475.032 1235.75 377.18 1154.45C285.638 1078.38 310.669 932.523 250.016 830.098C181.11 713.735 16.7822 655.902 2.32895 521.434C-12.7579 381.071 60.3612 226.94 176.582 146.89C289.158 69.3501 441.241 148.7 576.071 126.254Z" fill="#D9F4FF"/>
</svg>
