<svg width="988" height="889" viewBox="0 0 988 889" fill="none" xmlns="http://www.w3.org/2000/svg">
<path opacity="0.8" fill-rule="evenodd" clip-rule="evenodd" d="M806.516 604.504C752.826 692.71 772.739 835.735 678.657 878.33C585.278 920.608 489.905 819.981 391.102 792.582C295.116 765.964 182.163 787.548 108.701 720.274C31.8361 649.886 0.17496 539.255 0.692414 435.063C1.18983 334.908 50.7124 243.33 111.465 163.719C168.01 89.6196 239.209 17.3823 331.164 2.00143C417.189 -12.3878 486.145 71.3159 572.012 86.6841C669.564 104.144 780.311 40.6387 861.846 96.9808C946.955 155.793 997.486 270.141 986.278 372.948C975.421 472.531 858.596 518.943 806.516 604.504Z" fill="#FEDFB1"/>
</svg>
