<svg width="86" height="86" viewBox="0 0 86 86" fill="none" xmlns="http://www.w3.org/2000/svg">
<rect y="42.9999" width="60.6536" height="60.6536" rx="20" transform="rotate(-45 0 42.9999)" fill="#FECFD0"/>
<path d="M37.2774 41.1249C37.4574 41.1474 37.6299 41.1549 37.8099 41.1549C38.9199 41.1549 39.9849 40.7799 40.8549 40.0749C41.8674 39.2574 42.5049 38.0949 42.6474 36.7974C42.7899 35.4999 42.4149 34.2324 41.5974 33.2199C39.9099 31.1274 36.8349 30.7974 34.7424 32.4849C33.7299 33.3024 33.0924 34.4649 32.9499 35.7624C32.8074 37.0599 33.1824 38.3274 33.9999 39.3399C34.8249 40.3524 35.9874 40.9899 37.2774 41.1249ZM35.1924 36.0024C35.2674 35.3049 35.6124 34.6824 36.1524 34.2399C36.6249 33.8574 37.1949 33.6624 37.7949 33.6624C37.8924 33.6624 37.9824 33.6699 38.0799 33.6774C38.7774 33.7524 39.3999 34.0974 39.8424 34.6449C40.2849 35.1924 40.4799 35.8749 40.4049 36.5724C40.3299 37.2699 39.9849 37.8924 39.4449 38.3349C38.9049 38.7774 38.2149 38.9724 37.5174 38.8974C36.8199 38.8224 36.1974 38.4774 35.7549 37.9299C35.3199 37.3824 35.1174 36.6999 35.1924 36.0024Z" fill="#130F49"/>
<path d="M52.4199 46.6598C50.7324 44.5673 47.6574 44.2373 45.5649 45.9248C44.5524 46.7423 43.9149 47.9048 43.7724 49.2023C43.6299 50.4998 44.0049 51.7673 44.8224 52.7798C45.6399 53.7923 46.8024 54.4298 48.0999 54.5723C48.2799 54.5948 48.4524 54.6023 48.6324 54.6023C49.7424 54.6023 50.8074 54.2273 51.6774 53.5223C53.7699 51.8273 54.1074 48.7523 52.4199 46.6598ZM50.2674 51.7598C49.7199 52.2023 49.0374 52.3973 48.3399 52.3223C47.6424 52.2473 47.0199 51.9023 46.5774 51.3548C46.1349 50.8073 45.9399 50.1248 46.0149 49.4273C46.0899 48.7298 46.4349 48.1073 46.9749 47.6648C47.4624 47.2748 48.0399 47.0873 48.6174 47.0873C49.3824 47.0873 50.1474 47.4248 50.6649 48.0623C51.5724 49.1948 51.3924 50.8523 50.2674 51.7598Z" fill="#130F49"/>
<path d="M53.2 34.4724C52.81 33.9849 52.105 33.9099 51.6175 34.2999L32.9275 49.3599C32.44 49.7499 32.365 50.4549 32.755 50.9424C32.98 51.2199 33.3025 51.3624 33.6325 51.3624C33.88 51.3624 34.1275 51.2799 34.3375 51.1149L53.0275 36.0624C53.515 35.6649 53.59 34.9599 53.2 34.4724Z" fill="#130F49"/>
</svg>
