<svg width="86" height="86" viewBox="0 0 86 86" fill="none" xmlns="http://www.w3.org/2000/svg">
<rect y="42.8887" width="60.6536" height="60.6536" rx="20" transform="rotate(-45 0 42.8887)" fill="#FEDFB1"/>
<path d="M43 38.125C40.315 38.125 38.125 40.315 38.125 43C38.125 45.685 40.315 47.875 43 47.875C45.685 47.875 47.875 45.685 47.875 43C47.875 40.315 45.685 38.125 43 38.125ZM43 45.625C41.5525 45.625 40.375 44.4475 40.375 43C40.375 41.5525 41.5525 40.375 43 40.375C44.4475 40.375 45.625 41.5525 45.625 43C45.625 44.4475 44.4475 45.625 43 45.625Z" fill="#130F49"/>
<path d="M28 37.375C28.6225 37.375 29.125 36.8725 29.125 36.25V31.375H34C34.6225 31.375 35.125 30.8725 35.125 30.25C35.125 29.6275 34.6225 29.125 34 29.125H28C27.3775 29.125 26.875 29.6275 26.875 30.25V36.25C26.875 36.8725 27.3775 37.375 28 37.375Z" fill="#130F49"/>
<path d="M28 56.875H34C34.6225 56.875 35.125 56.3725 35.125 55.75C35.125 55.1275 34.6225 54.625 34 54.625H29.125V49.75C29.125 49.1275 28.6225 48.625 28 48.625C27.3775 48.625 26.875 49.1275 26.875 49.75V55.75C26.875 56.3725 27.3775 56.875 28 56.875Z" fill="#130F49"/>
<path d="M58 48.625C57.3775 48.625 56.875 49.1275 56.875 49.75V54.625H52C51.3775 54.625 50.875 55.1275 50.875 55.75C50.875 56.3725 51.3775 56.875 52 56.875H58C58.6225 56.875 59.125 56.3725 59.125 55.75V49.75C59.125 49.1275 58.6225 48.625 58 48.625Z" fill="#130F49"/>
<path d="M58 29.125H52C51.3775 29.125 50.875 29.6275 50.875 30.25C50.875 30.8725 51.3775 31.375 52 31.375H56.875V36.25C56.875 36.8725 57.3775 37.375 58 37.375C58.6225 37.375 59.125 36.8725 59.125 36.25V30.25C59.125 29.6275 58.6225 29.125 58 29.125Z" fill="#130F49"/>
</svg>
